<svg width="490" height="115" viewBox="0 0 490 115" fill="none" xmlns="http://www.w3.org/2000/svg">
<g>
<mask id="path-1-outside-1_27_487" maskUnits="userSpaceOnUse" x="0" y="0" width="490" height="115" fill="black">
<rect fill="white" width="490" height="115"/>
<path d="M38.9426 9.7968L23.9665 9.912V43.32H38.1362C44.8178 43.32 48.1586 38.7888 48.1586 29.7264H51.7298V61.6368H48.1586C48.1586 57.8736 47.3906 54.5328 45.8546 51.6144C44.3186 48.696 41.7458 47.2368 38.1362 47.2368H23.9665V82.1424C36.4082 82.0656 43.1666 81.9504 44.2418 81.7968C51.461 81.1056 56.837 79.224 60.3699 76.152C64.7475 72.3888 67.1283 66.3984 67.5123 58.1808H71.1987L69.9315 85.7136H3V82.1424H13.8288V9.912H3V6.34081H68.0883L68.2035 29.7264H64.8627C64.0179 21.5088 61.2147 15.9792 56.453 13.1376C52.613 10.9104 46.7762 9.7968 38.9426 9.7968Z"/>
<path d="M144.971 57.4896C144.971 65.2464 142.014 72.0816 136.101 77.9952C130.264 83.832 123.697 86.7504 116.401 86.7504C109.105 86.7504 103.115 84.7152 98.4301 80.6448C93.6685 76.344 91.2877 70.8144 91.2877 64.056C91.2877 61.9056 91.8253 58.6032 92.9005 54.1488C93.9757 49.6944 94.5133 46.392 94.5133 44.2416C94.5133 42.0912 93.7453 40.5168 92.2093 39.5184C90.7501 38.4432 90.0205 37.2528 90.0205 35.9472C90.0205 34.9488 91.2109 33.9888 93.5917 33.0672C95.9725 32.0688 97.9693 31.5696 99.5821 31.5696C101.272 31.5696 102.616 32.6448 103.614 34.7952C104.382 36.3312 104.766 38.4432 104.766 41.1312C104.766 43.7424 104.037 47.8896 102.577 53.5728C101.195 59.1792 100.504 63.8256 100.504 67.512C100.504 71.1216 101.694 74.7312 104.075 78.3408C106.533 81.8736 109.912 83.64 114.213 83.64C120.357 83.64 125.349 80.184 129.189 73.272C132.491 67.4352 134.142 61.4448 134.142 55.3008C134.142 49.08 132.721 43.4736 129.88 38.4816C127.883 35.7168 126.424 33.6432 125.502 32.2608C125.963 31.4928 126.501 31.1088 127.115 31.1088C131.569 31.1088 135.755 34.488 139.672 41.2464C143.205 47.16 144.971 52.5744 144.971 57.4896Z"/>
<path d="M206.198 18.8976C209.423 26.424 211.036 35.1408 211.036 45.048C211.036 54.8784 209.615 63.48 206.774 70.8528C202.78 81.528 196.405 86.8656 187.65 86.8656C178.972 86.8656 172.597 82.0656 168.527 72.4656C165.609 65.5536 164.149 56.8752 164.149 46.4304C164.149 35.9088 165.609 26.9232 168.527 19.4736C172.597 9.1056 179.087 3.9216 187.996 3.9216C195.906 3.9216 201.974 8.9136 206.198 18.8976ZM175.093 37.56L200.898 37.7904C200.437 28.5744 199.746 22.3152 198.825 19.0128C196.828 10.7184 193.141 6.5712 187.765 6.5712C183.311 6.5712 180.009 10.8336 177.858 19.3584C176.476 24.4272 175.554 30.4944 175.093 37.56ZM201.244 46.6608V41.7072H174.633V52.6512C174.633 61.0224 175.209 67.3968 176.361 71.7744C178.357 79.992 182.236 84.1008 187.996 84.1008C192.757 84.1008 196.329 78.8016 198.709 68.2032C200.399 61.368 201.244 54.1872 201.244 46.6608Z"/>
<path d="M284.71 57.4896C284.71 65.2464 281.753 72.0816 275.84 77.9952C270.003 83.832 263.437 86.7504 256.141 86.7504C248.845 86.7504 242.854 84.7152 238.169 80.6448C233.408 76.344 231.027 70.8144 231.027 64.056C231.027 61.9056 231.564 58.6032 232.64 54.1488C233.715 49.6944 234.252 46.392 234.252 44.2416C234.252 42.0912 233.484 40.5168 231.948 39.5184C230.489 38.4432 229.76 37.2528 229.76 35.9472C229.76 34.9488 230.95 33.9888 233.331 33.0672C235.712 32.0688 237.708 31.5696 239.321 31.5696C241.011 31.5696 242.355 32.6448 243.353 34.7952C244.121 36.3312 244.505 38.4432 244.505 41.1312C244.505 43.7424 243.776 47.8896 242.316 53.5728C240.934 59.1792 240.243 63.8256 240.243 67.512C240.243 71.1216 241.433 74.7312 243.814 78.3408C246.272 81.8736 249.651 83.64 253.952 83.64C260.096 83.64 265.088 80.184 268.928 73.272C272.23 67.4352 273.881 61.4448 273.881 55.3008C273.881 49.08 272.461 43.4736 269.619 38.4816C267.622 35.7168 266.163 33.6432 265.241 32.2608C265.702 31.4928 266.24 31.1088 266.854 31.1088C271.309 31.1088 275.494 34.488 279.411 41.2464C282.944 47.16 284.71 52.5744 284.71 57.4896Z"/>
<path d="M361.834 71.6592C362.065 72.4272 362.18 73.8096 362.18 75.8064C362.18 77.7264 361.45 80.0304 359.991 82.7184C358.609 85.3296 356.497 86.6352 353.655 86.6352C350.89 86.6352 348.586 85.176 346.743 82.2576C345.284 80.1072 344.362 77.304 343.978 73.848C339.14 82.3728 333.495 86.6352 327.044 86.6352C322.973 86.6352 319.325 85.2528 316.1 82.488C312.874 79.7232 310.57 76.3056 309.188 72.2352C308.88 74.4624 308.727 77.304 308.727 80.76C308.727 84.1392 309.572 87.9024 311.261 92.0496C312.029 94.2 313.412 96.9264 315.408 100.229C317.405 103.608 318.404 106.066 318.404 107.602C318.404 110.52 316.445 111.979 312.528 111.979C308.612 111.979 306.039 109.867 304.81 105.643C304.196 103.416 303.888 100.152 303.888 95.8512C303.888 91.6272 304.234 86.136 304.925 79.3776C305.693 72.5424 306.077 67.5504 306.077 64.4016C306.077 61.2528 305.847 57.336 305.386 52.6512C304.925 47.9664 304.695 44.1264 304.695 41.1312C304.695 38.136 305.117 35.7552 305.962 33.9888C306.884 32.2224 308.88 31.3392 311.952 31.3392C315.024 31.3392 316.561 33.0672 316.561 36.5232C316.561 39.0576 315.908 43.2432 314.602 49.08C313.296 54.9168 312.644 59.9088 312.644 64.056C312.644 74.9616 316.253 80.4144 323.473 80.4144C335.53 80.4144 341.559 67.2816 341.559 41.016C341.559 34.5648 343.018 31.3392 345.937 31.3392C348.625 31.3392 350.314 31.8768 351.005 32.952C351.697 34.0272 352.042 36.024 352.042 38.9424C352.042 50.1552 350.007 60.4848 345.937 69.9312C347.242 74.9232 349.469 77.4192 352.618 77.4192C356.228 77.4192 359.3 75.4992 361.834 71.6592Z"/>
<path d="M403.141 6.8016C403.141 8.4912 402.642 9.8352 401.643 10.8336L386.437 26.5008L383.902 26.04L395.077 5.1888C395.845 3.7296 397.266 3 399.339 3C401.874 3 403.141 4.2672 403.141 6.8016ZM381.944 63.3648L381.368 40.9008C381.368 37.4448 381.483 35.2944 381.714 34.4496C382.558 32.9136 384.44 32.1456 387.358 32.1456C391.736 32.1456 393.925 33.0288 393.925 34.7952C393.925 39.096 392.581 45.8544 389.893 55.0704C387.205 64.2096 385.861 70.9296 385.861 75.2304C385.861 78.2256 387.205 79.7232 389.893 79.7232C393.656 79.7232 397.074 76.3824 400.146 69.7008C401.375 69.9312 402.335 70.8528 403.026 72.4656C403.794 74.0016 404.178 75.8448 404.178 77.9952C404.178 80.0688 403.141 82.1808 401.067 84.3312C399.07 86.4816 396.69 87.5568 393.925 87.5568C388.011 87.5568 384.325 84.7536 382.866 79.1472C382.251 76.536 381.944 71.2752 381.944 63.3648Z"/>
<path d="M486.617 74.7696C486.617 77.688 485.964 80.3376 484.659 82.7184C483.2 85.56 480.972 86.9808 477.977 86.9808C475.059 86.9808 472.486 84.6 470.259 79.8384C469.337 78.072 468.108 74.232 466.572 68.3184C463.577 74.1552 460.275 78.7248 456.665 82.0272C453.132 85.3296 448.447 86.9808 442.611 86.9808C436.774 86.9808 431.897 84.5616 427.98 79.7232C424.14 74.808 422.22 69.2016 422.22 62.904C422.22 54.7632 424.179 47.736 428.095 41.8224C432.55 35.064 438.694 31.6848 446.527 31.6848C457.433 31.6848 463.423 38.5968 464.499 52.4208L471.987 33.0672H483.737L468.531 65.208C469.376 68.1264 470.835 70.7376 472.908 73.0416C474.982 75.2688 477.248 76.3824 479.705 76.3824C482.163 76.3824 484.39 74.9232 486.387 72.0048C486.54 73.08 486.617 74.0016 486.617 74.7696ZM461.849 56.4528C461.849 51.9216 460.774 48.0048 458.623 44.7024C455.935 40.8624 452.518 38.9424 448.371 38.9424C442.918 38.9424 438.54 42.3216 435.238 49.08C432.473 54.6096 431.091 60.3696 431.091 66.36C431.091 77.7264 434.393 83.4096 440.998 83.4096C445.145 83.4096 449.638 79.8 454.476 72.5808C459.391 65.2848 461.849 59.9088 461.849 56.4528Z"/>
</mask>
<path d="M38.9426 9.7968L23.9665 9.912V43.32H38.1362C44.8178 43.32 48.1586 38.7888 48.1586 29.7264H51.7298V61.6368H48.1586C48.1586 57.8736 47.3906 54.5328 45.8546 51.6144C44.3186 48.696 41.7458 47.2368 38.1362 47.2368H23.9665V82.1424C36.4082 82.0656 43.1666 81.9504 44.2418 81.7968C51.461 81.1056 56.837 79.224 60.3699 76.152C64.7475 72.3888 67.1283 66.3984 67.5123 58.1808H71.1987L69.9315 85.7136H3V82.1424H13.8288V9.912H3V6.34081H68.0883L68.2035 29.7264H64.8627C64.0179 21.5088 61.2147 15.9792 56.453 13.1376C52.613 10.9104 46.7762 9.7968 38.9426 9.7968Z" fill="#2061AD"/>
<path d="M144.971 57.4896C144.971 65.2464 142.014 72.0816 136.101 77.9952C130.264 83.832 123.697 86.7504 116.401 86.7504C109.105 86.7504 103.115 84.7152 98.4301 80.6448C93.6685 76.344 91.2877 70.8144 91.2877 64.056C91.2877 61.9056 91.8253 58.6032 92.9005 54.1488C93.9757 49.6944 94.5133 46.392 94.5133 44.2416C94.5133 42.0912 93.7453 40.5168 92.2093 39.5184C90.7501 38.4432 90.0205 37.2528 90.0205 35.9472C90.0205 34.9488 91.2109 33.9888 93.5917 33.0672C95.9725 32.0688 97.9693 31.5696 99.5821 31.5696C101.272 31.5696 102.616 32.6448 103.614 34.7952C104.382 36.3312 104.766 38.4432 104.766 41.1312C104.766 43.7424 104.037 47.8896 102.577 53.5728C101.195 59.1792 100.504 63.8256 100.504 67.512C100.504 71.1216 101.694 74.7312 104.075 78.3408C106.533 81.8736 109.912 83.64 114.213 83.64C120.357 83.64 125.349 80.184 129.189 73.272C132.491 67.4352 134.142 61.4448 134.142 55.3008C134.142 49.08 132.721 43.4736 129.88 38.4816C127.883 35.7168 126.424 33.6432 125.502 32.2608C125.963 31.4928 126.501 31.1088 127.115 31.1088C131.569 31.1088 135.755 34.488 139.672 41.2464C143.205 47.16 144.971 52.5744 144.971 57.4896Z" fill="#2061AD"/>
<path d="M206.198 18.8976C209.423 26.424 211.036 35.1408 211.036 45.048C211.036 54.8784 209.615 63.48 206.774 70.8528C202.78 81.528 196.405 86.8656 187.65 86.8656C178.972 86.8656 172.597 82.0656 168.527 72.4656C165.609 65.5536 164.149 56.8752 164.149 46.4304C164.149 35.9088 165.609 26.9232 168.527 19.4736C172.597 9.1056 179.087 3.9216 187.996 3.9216C195.906 3.9216 201.974 8.9136 206.198 18.8976ZM175.093 37.56L200.898 37.7904C200.437 28.5744 199.746 22.3152 198.825 19.0128C196.828 10.7184 193.141 6.5712 187.765 6.5712C183.311 6.5712 180.009 10.8336 177.858 19.3584C176.476 24.4272 175.554 30.4944 175.093 37.56ZM201.244 46.6608V41.7072H174.633V52.6512C174.633 61.0224 175.209 67.3968 176.361 71.7744C178.357 79.992 182.236 84.1008 187.996 84.1008C192.757 84.1008 196.329 78.8016 198.709 68.2032C200.399 61.368 201.244 54.1872 201.244 46.6608Z" fill="#2061AD"/>
<path d="M284.71 57.4896C284.71 65.2464 281.753 72.0816 275.84 77.9952C270.003 83.832 263.437 86.7504 256.141 86.7504C248.845 86.7504 242.854 84.7152 238.169 80.6448C233.408 76.344 231.027 70.8144 231.027 64.056C231.027 61.9056 231.564 58.6032 232.64 54.1488C233.715 49.6944 234.252 46.392 234.252 44.2416C234.252 42.0912 233.484 40.5168 231.948 39.5184C230.489 38.4432 229.76 37.2528 229.76 35.9472C229.76 34.9488 230.95 33.9888 233.331 33.0672C235.712 32.0688 237.708 31.5696 239.321 31.5696C241.011 31.5696 242.355 32.6448 243.353 34.7952C244.121 36.3312 244.505 38.4432 244.505 41.1312C244.505 43.7424 243.776 47.8896 242.316 53.5728C240.934 59.1792 240.243 63.8256 240.243 67.512C240.243 71.1216 241.433 74.7312 243.814 78.3408C246.272 81.8736 249.651 83.64 253.952 83.64C260.096 83.64 265.088 80.184 268.928 73.272C272.23 67.4352 273.881 61.4448 273.881 55.3008C273.881 49.08 272.461 43.4736 269.619 38.4816C267.622 35.7168 266.163 33.6432 265.241 32.2608C265.702 31.4928 266.24 31.1088 266.854 31.1088C271.309 31.1088 275.494 34.488 279.411 41.2464C282.944 47.16 284.71 52.5744 284.71 57.4896Z" fill="#2061AD"/>
<path d="M361.834 71.6592C362.065 72.4272 362.18 73.8096 362.18 75.8064C362.18 77.7264 361.45 80.0304 359.991 82.7184C358.609 85.3296 356.497 86.6352 353.655 86.6352C350.89 86.6352 348.586 85.176 346.743 82.2576C345.284 80.1072 344.362 77.304 343.978 73.848C339.14 82.3728 333.495 86.6352 327.044 86.6352C322.973 86.6352 319.325 85.2528 316.1 82.488C312.874 79.7232 310.57 76.3056 309.188 72.2352C308.88 74.4624 308.727 77.304 308.727 80.76C308.727 84.1392 309.572 87.9024 311.261 92.0496C312.029 94.2 313.412 96.9264 315.408 100.229C317.405 103.608 318.404 106.066 318.404 107.602C318.404 110.52 316.445 111.979 312.528 111.979C308.612 111.979 306.039 109.867 304.81 105.643C304.196 103.416 303.888 100.152 303.888 95.8512C303.888 91.6272 304.234 86.136 304.925 79.3776C305.693 72.5424 306.077 67.5504 306.077 64.4016C306.077 61.2528 305.847 57.336 305.386 52.6512C304.925 47.9664 304.695 44.1264 304.695 41.1312C304.695 38.136 305.117 35.7552 305.962 33.9888C306.884 32.2224 308.88 31.3392 311.952 31.3392C315.024 31.3392 316.561 33.0672 316.561 36.5232C316.561 39.0576 315.908 43.2432 314.602 49.08C313.296 54.9168 312.644 59.9088 312.644 64.056C312.644 74.9616 316.253 80.4144 323.473 80.4144C335.53 80.4144 341.559 67.2816 341.559 41.016C341.559 34.5648 343.018 31.3392 345.937 31.3392C348.625 31.3392 350.314 31.8768 351.005 32.952C351.697 34.0272 352.042 36.024 352.042 38.9424C352.042 50.1552 350.007 60.4848 345.937 69.9312C347.242 74.9232 349.469 77.4192 352.618 77.4192C356.228 77.4192 359.3 75.4992 361.834 71.6592Z" fill="#2061AD"/>
<path d="M403.141 6.8016C403.141 8.4912 402.642 9.8352 401.643 10.8336L386.437 26.5008L383.902 26.04L395.077 5.1888C395.845 3.7296 397.266 3 399.339 3C401.874 3 403.141 4.2672 403.141 6.8016ZM381.944 63.3648L381.368 40.9008C381.368 37.4448 381.483 35.2944 381.714 34.4496C382.558 32.9136 384.44 32.1456 387.358 32.1456C391.736 32.1456 393.925 33.0288 393.925 34.7952C393.925 39.096 392.581 45.8544 389.893 55.0704C387.205 64.2096 385.861 70.9296 385.861 75.2304C385.861 78.2256 387.205 79.7232 389.893 79.7232C393.656 79.7232 397.074 76.3824 400.146 69.7008C401.375 69.9312 402.335 70.8528 403.026 72.4656C403.794 74.0016 404.178 75.8448 404.178 77.9952C404.178 80.0688 403.141 82.1808 401.067 84.3312C399.07 86.4816 396.69 87.5568 393.925 87.5568C388.011 87.5568 384.325 84.7536 382.866 79.1472C382.251 76.536 381.944 71.2752 381.944 63.3648Z" fill="#2061AD"/>
<path d="M486.617 74.7696C486.617 77.688 485.964 80.3376 484.659 82.7184C483.2 85.56 480.972 86.9808 477.977 86.9808C475.059 86.9808 472.486 84.6 470.259 79.8384C469.337 78.072 468.108 74.232 466.572 68.3184C463.577 74.1552 460.275 78.7248 456.665 82.0272C453.132 85.3296 448.447 86.9808 442.611 86.9808C436.774 86.9808 431.897 84.5616 427.98 79.7232C424.14 74.808 422.22 69.2016 422.22 62.904C422.22 54.7632 424.179 47.736 428.095 41.8224C432.55 35.064 438.694 31.6848 446.527 31.6848C457.433 31.6848 463.423 38.5968 464.499 52.4208L471.987 33.0672H483.737L468.531 65.208C469.376 68.1264 470.835 70.7376 472.908 73.0416C474.982 75.2688 477.248 76.3824 479.705 76.3824C482.163 76.3824 484.39 74.9232 486.387 72.0048C486.54 73.08 486.617 74.0016 486.617 74.7696ZM461.849 56.4528C461.849 51.9216 460.774 48.0048 458.623 44.7024C455.935 40.8624 452.518 38.9424 448.371 38.9424C442.918 38.9424 438.54 42.3216 435.238 49.08C432.473 54.6096 431.091 60.3696 431.091 66.36C431.091 77.7264 434.393 83.4096 440.998 83.4096C445.145 83.4096 449.638 79.8 454.476 72.5808C459.391 65.2848 461.849 59.9088 461.849 56.4528Z" fill="#2061AD"/>
<path d="M38.9426 9.7968L23.9665 9.912V43.32H38.1362C44.8178 43.32 48.1586 38.7888 48.1586 29.7264H51.7298V61.6368H48.1586C48.1586 57.8736 47.3906 54.5328 45.8546 51.6144C44.3186 48.696 41.7458 47.2368 38.1362 47.2368H23.9665V82.1424C36.4082 82.0656 43.1666 81.9504 44.2418 81.7968C51.461 81.1056 56.837 79.224 60.3699 76.152C64.7475 72.3888 67.1283 66.3984 67.5123 58.1808H71.1987L69.9315 85.7136H3V82.1424H13.8288V9.912H3V6.34081H68.0883L68.2035 29.7264H64.8627C64.0179 21.5088 61.2147 15.9792 56.453 13.1376C52.613 10.9104 46.7762 9.7968 38.9426 9.7968Z" stroke="#2061AD" stroke-width="4.80001" mask="url(#path-1-outside-1_27_487)"/>
<path d="M144.971 57.4896C144.971 65.2464 142.014 72.0816 136.101 77.9952C130.264 83.832 123.697 86.7504 116.401 86.7504C109.105 86.7504 103.115 84.7152 98.4301 80.6448C93.6685 76.344 91.2877 70.8144 91.2877 64.056C91.2877 61.9056 91.8253 58.6032 92.9005 54.1488C93.9757 49.6944 94.5133 46.392 94.5133 44.2416C94.5133 42.0912 93.7453 40.5168 92.2093 39.5184C90.7501 38.4432 90.0205 37.2528 90.0205 35.9472C90.0205 34.9488 91.2109 33.9888 93.5917 33.0672C95.9725 32.0688 97.9693 31.5696 99.5821 31.5696C101.272 31.5696 102.616 32.6448 103.614 34.7952C104.382 36.3312 104.766 38.4432 104.766 41.1312C104.766 43.7424 104.037 47.8896 102.577 53.5728C101.195 59.1792 100.504 63.8256 100.504 67.512C100.504 71.1216 101.694 74.7312 104.075 78.3408C106.533 81.8736 109.912 83.64 114.213 83.64C120.357 83.64 125.349 80.184 129.189 73.272C132.491 67.4352 134.142 61.4448 134.142 55.3008C134.142 49.08 132.721 43.4736 129.88 38.4816C127.883 35.7168 126.424 33.6432 125.502 32.2608C125.963 31.4928 126.501 31.1088 127.115 31.1088C131.569 31.1088 135.755 34.488 139.672 41.2464C143.205 47.16 144.971 52.5744 144.971 57.4896Z" stroke="#2061AD" stroke-width="4.80001" mask="url(#path-1-outside-1_27_487)"/>
<path d="M206.198 18.8976C209.423 26.424 211.036 35.1408 211.036 45.048C211.036 54.8784 209.615 63.48 206.774 70.8528C202.78 81.528 196.405 86.8656 187.65 86.8656C178.972 86.8656 172.597 82.0656 168.527 72.4656C165.609 65.5536 164.149 56.8752 164.149 46.4304C164.149 35.9088 165.609 26.9232 168.527 19.4736C172.597 9.1056 179.087 3.9216 187.996 3.9216C195.906 3.9216 201.974 8.9136 206.198 18.8976ZM175.093 37.56L200.898 37.7904C200.437 28.5744 199.746 22.3152 198.825 19.0128C196.828 10.7184 193.141 6.5712 187.765 6.5712C183.311 6.5712 180.009 10.8336 177.858 19.3584C176.476 24.4272 175.554 30.4944 175.093 37.56ZM201.244 46.6608V41.7072H174.633V52.6512C174.633 61.0224 175.209 67.3968 176.361 71.7744C178.357 79.992 182.236 84.1008 187.996 84.1008C192.757 84.1008 196.329 78.8016 198.709 68.2032C200.399 61.368 201.244 54.1872 201.244 46.6608Z" stroke="#2061AD" stroke-width="4.80001" mask="url(#path-1-outside-1_27_487)"/>
<path d="M284.71 57.4896C284.71 65.2464 281.753 72.0816 275.84 77.9952C270.003 83.832 263.437 86.7504 256.141 86.7504C248.845 86.7504 242.854 84.7152 238.169 80.6448C233.408 76.344 231.027 70.8144 231.027 64.056C231.027 61.9056 231.564 58.6032 232.64 54.1488C233.715 49.6944 234.252 46.392 234.252 44.2416C234.252 42.0912 233.484 40.5168 231.948 39.5184C230.489 38.4432 229.76 37.2528 229.76 35.9472C229.76 34.9488 230.95 33.9888 233.331 33.0672C235.712 32.0688 237.708 31.5696 239.321 31.5696C241.011 31.5696 242.355 32.6448 243.353 34.7952C244.121 36.3312 244.505 38.4432 244.505 41.1312C244.505 43.7424 243.776 47.8896 242.316 53.5728C240.934 59.1792 240.243 63.8256 240.243 67.512C240.243 71.1216 241.433 74.7312 243.814 78.3408C246.272 81.8736 249.651 83.64 253.952 83.64C260.096 83.64 265.088 80.184 268.928 73.272C272.23 67.4352 273.881 61.4448 273.881 55.3008C273.881 49.08 272.461 43.4736 269.619 38.4816C267.622 35.7168 266.163 33.6432 265.241 32.2608C265.702 31.4928 266.24 31.1088 266.854 31.1088C271.309 31.1088 275.494 34.488 279.411 41.2464C282.944 47.16 284.71 52.5744 284.71 57.4896Z" stroke="#2061AD" stroke-width="4.80001" mask="url(#path-1-outside-1_27_487)"/>
<path d="M361.834 71.6592C362.065 72.4272 362.18 73.8096 362.18 75.8064C362.18 77.7264 361.45 80.0304 359.991 82.7184C358.609 85.3296 356.497 86.6352 353.655 86.6352C350.89 86.6352 348.586 85.176 346.743 82.2576C345.284 80.1072 344.362 77.304 343.978 73.848C339.14 82.3728 333.495 86.6352 327.044 86.6352C322.973 86.6352 319.325 85.2528 316.1 82.488C312.874 79.7232 310.57 76.3056 309.188 72.2352C308.88 74.4624 308.727 77.304 308.727 80.76C308.727 84.1392 309.572 87.9024 311.261 92.0496C312.029 94.2 313.412 96.9264 315.408 100.229C317.405 103.608 318.404 106.066 318.404 107.602C318.404 110.52 316.445 111.979 312.528 111.979C308.612 111.979 306.039 109.867 304.81 105.643C304.196 103.416 303.888 100.152 303.888 95.8512C303.888 91.6272 304.234 86.136 304.925 79.3776C305.693 72.5424 306.077 67.5504 306.077 64.4016C306.077 61.2528 305.847 57.336 305.386 52.6512C304.925 47.9664 304.695 44.1264 304.695 41.1312C304.695 38.136 305.117 35.7552 305.962 33.9888C306.884 32.2224 308.88 31.3392 311.952 31.3392C315.024 31.3392 316.561 33.0672 316.561 36.5232C316.561 39.0576 315.908 43.2432 314.602 49.08C313.296 54.9168 312.644 59.9088 312.644 64.056C312.644 74.9616 316.253 80.4144 323.473 80.4144C335.53 80.4144 341.559 67.2816 341.559 41.016C341.559 34.5648 343.018 31.3392 345.937 31.3392C348.625 31.3392 350.314 31.8768 351.005 32.952C351.697 34.0272 352.042 36.024 352.042 38.9424C352.042 50.1552 350.007 60.4848 345.937 69.9312C347.242 74.9232 349.469 77.4192 352.618 77.4192C356.228 77.4192 359.3 75.4992 361.834 71.6592Z" stroke="#2061AD" stroke-width="4.80001" mask="url(#path-1-outside-1_27_487)"/>
<path d="M403.141 6.8016C403.141 8.4912 402.642 9.8352 401.643 10.8336L386.437 26.5008L383.902 26.04L395.077 5.1888C395.845 3.7296 397.266 3 399.339 3C401.874 3 403.141 4.2672 403.141 6.8016ZM381.944 63.3648L381.368 40.9008C381.368 37.4448 381.483 35.2944 381.714 34.4496C382.558 32.9136 384.44 32.1456 387.358 32.1456C391.736 32.1456 393.925 33.0288 393.925 34.7952C393.925 39.096 392.581 45.8544 389.893 55.0704C387.205 64.2096 385.861 70.9296 385.861 75.2304C385.861 78.2256 387.205 79.7232 389.893 79.7232C393.656 79.7232 397.074 76.3824 400.146 69.7008C401.375 69.9312 402.335 70.8528 403.026 72.4656C403.794 74.0016 404.178 75.8448 404.178 77.9952C404.178 80.0688 403.141 82.1808 401.067 84.3312C399.07 86.4816 396.69 87.5568 393.925 87.5568C388.011 87.5568 384.325 84.7536 382.866 79.1472C382.251 76.536 381.944 71.2752 381.944 63.3648Z" stroke="#2061AD" stroke-width="4.80001" mask="url(#path-1-outside-1_27_487)"/>
<path d="M486.617 74.7696C486.617 77.688 485.964 80.3376 484.659 82.7184C483.2 85.56 480.972 86.9808 477.977 86.9808C475.059 86.9808 472.486 84.6 470.259 79.8384C469.337 78.072 468.108 74.232 466.572 68.3184C463.577 74.1552 460.275 78.7248 456.665 82.0272C453.132 85.3296 448.447 86.9808 442.611 86.9808C436.774 86.9808 431.897 84.5616 427.98 79.7232C424.14 74.808 422.22 69.2016 422.22 62.904C422.22 54.7632 424.179 47.736 428.095 41.8224C432.55 35.064 438.694 31.6848 446.527 31.6848C457.433 31.6848 463.423 38.5968 464.499 52.4208L471.987 33.0672H483.737L468.531 65.208C469.376 68.1264 470.835 70.7376 472.908 73.0416C474.982 75.2688 477.248 76.3824 479.705 76.3824C482.163 76.3824 484.39 74.9232 486.387 72.0048C486.54 73.08 486.617 74.0016 486.617 74.7696ZM461.849 56.4528C461.849 51.9216 460.774 48.0048 458.623 44.7024C455.935 40.8624 452.518 38.9424 448.371 38.9424C442.918 38.9424 438.54 42.3216 435.238 49.08C432.473 54.6096 431.091 60.3696 431.091 66.36C431.091 77.7264 434.393 83.4096 440.998 83.4096C445.145 83.4096 449.638 79.8 454.476 72.5808C459.391 65.2848 461.849 59.9088 461.849 56.4528Z" stroke="#2061AD" stroke-width="4.80001" mask="url(#path-1-outside-1_27_487)"/>
</g>
</svg>
