<svg width="24" height="24" viewBox="0 0 24 24" fill="none" xmlns="http://www.w3.org/2000/svg">
<path d="M16.6998 2.5H8.31976C4.67976 2.5 2.50976 4.67 2.50976 8.31V16.68C2.50976 20.33 4.67976 22.5 8.31976 22.5H16.6898C20.3298 22.5 22.4998 20.33 22.4998 16.69V8.31C22.5098 4.67 20.3398 2.5 16.6998 2.5ZM12.5098 16.38C10.3698 16.38 8.62976 14.64 8.62976 12.5C8.62976 10.36 10.3698 8.62 12.5098 8.62C14.6498 8.62 16.3898 10.36 16.3898 12.5C16.3898 14.64 14.6498 16.38 12.5098 16.38ZM18.4298 7.38C18.3798 7.5 18.3098 7.61 18.2198 7.71C18.1198 7.8 18.0098 7.87 17.8898 7.92C17.7078 7.99725 17.5069 8.01853 17.3127 7.98113C17.1186 7.94372 16.94 7.84933 16.7998 7.71C16.7098 7.61 16.6398 7.5 16.5898 7.38C16.5384 7.25982 16.5112 7.13069 16.5098 7C16.5098 6.87 16.5398 6.74 16.5898 6.62C16.6398 6.49 16.7098 6.39 16.7998 6.29C17.0298 6.06 17.3798 5.95 17.6998 6.02C17.7698 6.03 17.8298 6.05 17.8898 6.08C17.9498 6.1 18.0098 6.13 18.0698 6.17C18.1198 6.2 18.1698 6.25 18.2198 6.29C18.3098 6.39 18.3798 6.49 18.4298 6.62C18.4798 6.74 18.5098 6.87 18.5098 7C18.5098 7.13 18.4798 7.26 18.4298 7.38Z" fill="white" fill-opacity="0.67"/>
</svg>
