<svg width="50" height="38" viewBox="0 0 50 38" fill="none" xmlns="http://www.w3.org/2000/svg">
<path d="M46.238 17.7967C40.6576 25.8362 32.5846 30.7197 24.5302 30.7197C16.4757 30.7197 8.40268 25.8362 2.82227 17.7967C8.40268 9.7572 16.4757 4.87371 24.5302 4.87371C32.5846 4.87371 40.6576 9.7572 46.238 17.7967Z" stroke="white" stroke-width="0.11577" stroke-miterlimit="10"/>
<path d="M33.9448 5.61615L33.1553 6.82129L33.9448 5.61615Z" fill="white"/>
<path d="M33.9448 29.9775L33.1553 28.7724L33.9448 29.9775Z" fill="white"/>
<path d="M15.5977 5.37505L16.3871 6.58008L15.5977 5.37505Z" fill="white"/>
<path d="M7.39453 10.5856L8.47278 11.541L7.39453 10.5856Z" fill="white"/>
<path d="M15.1152 29.9775L15.9047 28.7724L15.1152 29.9775Z" fill="white"/>
<path d="M7.22949 24.9102L8.30786 23.9549L7.22949 24.9102Z" fill="white"/>
<path d="M41.6653 10.5856L40.5869 11.541L41.6653 10.5856Z" fill="white"/>
<path d="M41.3488 25.3916L40.2705 24.4362L41.3488 25.3916Z" fill="white"/>
<path d="M15.2057 7.13912C13.6163 9.17131 12.6689 11.73 12.6689 14.5099C12.6689 21.1232 18.0301 26.4844 24.6434 26.4844C31.2567 26.4844 36.6178 21.1232 36.6178 14.5099C36.6178 11.8158 35.728 9.32944 34.2265 7.32872C34.2265 7.32872 30.2623 4.87398 24.5307 4.87398C18.799 4.87398 15.2057 7.13912 15.2057 7.13912Z" fill="#D3D937"/>
<path d="M29.2902 14.5316C29.2902 17.1607 27.1589 19.292 24.5299 19.292C21.9008 19.292 19.7695 17.1607 19.7695 14.5316C19.7695 11.9025 21.9008 9.77128 24.5299 9.77128C27.1589 9.77128 29.2902 11.9025 29.2902 14.5316Z" fill="#D14F96"/>
<path d="M46.238 17.7967C40.6576 25.8362 32.5846 30.7197 24.5302 30.7197C16.4757 30.7197 8.40268 25.8362 2.82227 17.7967C8.40268 9.7572 16.4757 4.87371 24.5302 4.87371C32.5846 4.87371 40.6576 9.7572 46.238 17.7967Z" stroke="white" stroke-width="2.04797" stroke-miterlimit="10" stroke-linecap="round" stroke-linejoin="round"/>
<path d="M24.6504 3.43435V4.875" stroke="white" stroke-width="1.70665" stroke-miterlimit="10" stroke-linecap="round" stroke-linejoin="round"/>
<path d="M33.9438 5.61518L33.1543 6.82031" stroke="white" stroke-width="1.70665" stroke-miterlimit="10" stroke-linecap="round" stroke-linejoin="round"/>
<path d="M47.2463 17.8682H45.8057" stroke="white" stroke-width="1.70665" stroke-miterlimit="10" stroke-linecap="round" stroke-linejoin="round"/>
<path d="M24.6504 32.1582V30.7175" stroke="white" stroke-width="1.70665" stroke-miterlimit="10" stroke-linecap="round" stroke-linejoin="round"/>
<path d="M33.9438 29.9766L33.1543 28.7714" stroke="white" stroke-width="1.70665" stroke-miterlimit="10" stroke-linecap="round" stroke-linejoin="round"/>
<path d="M15.5967 5.37505L16.3861 6.58008" stroke="white" stroke-width="1.70665" stroke-miterlimit="10" stroke-linecap="round" stroke-linejoin="round"/>
<path d="M7.39453 10.5846L8.47278 11.54" stroke="white" stroke-width="1.70665" stroke-miterlimit="10" stroke-linecap="round" stroke-linejoin="round"/>
<path d="M1.81348 17.8682H3.25425" stroke="white" stroke-width="1.70665" stroke-miterlimit="10" stroke-linecap="round" stroke-linejoin="round"/>
<path d="M15.1152 29.9766L15.9047 28.7714" stroke="white" stroke-width="1.70665" stroke-miterlimit="10" stroke-linecap="round" stroke-linejoin="round"/>
<path d="M7.22852 24.9102L8.30688 23.9549" stroke="white" stroke-width="1.70665" stroke-miterlimit="10" stroke-linecap="round" stroke-linejoin="round"/>
<path d="M41.6643 10.5846L40.5859 11.54" stroke="white" stroke-width="1.70665" stroke-miterlimit="10" stroke-linecap="round" stroke-linejoin="round"/>
<path d="M41.3488 25.3916L40.2705 24.4362" stroke="white" stroke-width="1.70665" stroke-miterlimit="10" stroke-linecap="round" stroke-linejoin="round"/>
<path d="M18.0735 20.7717L3.17465 36.5842C2.67125 37.1185 1.82997 37.1436 1.29566 36.6401C0.761353 36.1367 0.736267 35.2954 1.23967 34.7611C1.24079 34.7428 17.0858 19.8364 17.1079 19.8065C17.7599 19.2264 18.6573 20.1075 18.0735 20.7717Z" fill="white"/>
<path d="M19.3115 20.0159C19.1818 20.3128 18.994 20.558 18.7751 20.7884C18.5473 21.023 18.3612 21.2693 18.0027 21.3248C17.1703 21.4705 16.4116 20.7054 16.5545 19.8767C16.61 19.5182 16.8564 19.3319 17.091 19.1042C17.3213 18.8852 17.5665 18.6975 17.8634 18.5678C18.769 18.1837 19.6925 19.123 19.3115 20.0159Z" fill="white"/>
<path d="M31.952 19.8064L47.7645 34.7052C48.2988 35.2086 48.3237 36.0499 47.8203 36.5842C47.3169 37.1185 46.4757 37.1436 45.9413 36.6401C45.923 36.6391 31.0165 20.7941 30.9866 20.7719C30.4066 20.12 31.2877 19.2225 31.952 19.8064Z" fill="white"/>
<path d="M31.1967 18.5684C31.4936 18.6981 31.7387 18.8859 31.9691 19.1047C32.2038 19.3325 32.45 19.5187 32.5055 19.8772C32.6512 20.7096 31.8861 21.4682 31.0574 21.3254C30.699 21.2698 30.5126 21.0236 30.285 20.7889C30.066 20.5586 29.8783 20.3134 29.7485 20.0164C29.3644 19.1109 30.3038 18.1874 31.1967 18.5684Z" fill="white"/>
<path d="M18.0012 13.749L10.1961 3.26093L8.47359 4.44681L4.10862 -0.000141144L0 2.97569L7.75461 8.39327L9.72767 6.92114L18.0012 13.749Z" fill="#AE90CE"/>
<path d="M31.0586 13.749L38.8636 3.26093L40.5862 4.44681L44.9512 -0.000141144L49.0598 2.97569L41.3051 8.39327L39.3321 6.92114L31.0586 13.749Z" fill="#AE90CE"/>
</svg>
