<?xml version="1.0" encoding="UTF-8" standalone="no"?>
<!-- Created with Inkscape (http://www.inkscape.org/) -->

<svg
   version="1.1"
   id="svg2"
   width="820.1333"
   height="618.56"
   viewBox="0 0 820.1333 618.56"
   sodipodi:docname="EYE ONLY DTW23-white.eps"
   xmlns:inkscape="http://www.inkscape.org/namespaces/inkscape"
   xmlns:sodipodi="http://sodipodi.sourceforge.net/DTD/sodipodi-0.dtd"
   xmlns="http://www.w3.org/2000/svg"
   xmlns:svg="http://www.w3.org/2000/svg">
  <defs
     id="defs6" />
  <sodipodi:namedview
     id="namedview4"
     pagecolor="#ffffff"
     bordercolor="#000000"
     borderopacity="0.25"
     inkscape:showpageshadow="2"
     inkscape:pageopacity="0.0"
     inkscape:pagecheckerboard="0"
     inkscape:deskcolor="#d1d1d1" />
  <g
     id="g8"
     inkscape:groupmode="layer"
     inkscape:label="ink_ext_XXXXXX"
     transform="matrix(1.3333333,0,0,-1.3333333,0,618.56)">
    <g
       id="g10"
       transform="scale(0.1)">
      <path
         d="m 1906.35,3744.12 c -199.27,-254.8 -318.04,-575.59 -318.04,-924.13 0,-829.16 672.16,-1501.32 1501.32,-1501.32 829.15,0 1501.32,672.16 1501.32,1501.32 0,337.78 -111.56,649.51 -299.83,900.35 0,0 -497.01,307.78 -1215.62,307.78 -718.62,0 -1169.15,-284 -1169.15,-284 z"
         style="fill:none;stroke:#ffffff;stroke-width:90;stroke-linecap:butt;stroke-linejoin:miter;stroke-miterlimit:10;stroke-dasharray:none;stroke-opacity:1"
         id="path12" />
      <path
         d="M 5797.16,2407.86 C 5097.5,1399.9 4085.34,787.609 3075.5,787.609 2065.66,787.609 1053.49,1399.9 353.824,2407.86 v 0.01 C 1053.49,3415.83 2065.66,4028.12 3075.5,4028.12 c 1009.84,0 2022,-612.29 2721.66,-1620.26 z"
         style="fill:none;stroke:#ffffff;stroke-width:256.769;stroke-linecap:round;stroke-linejoin:round;stroke-miterlimit:10;stroke-dasharray:none;stroke-opacity:1"
         id="path14" />
      <path
         d="M 3090.59,4208.5 V 4027.87"
         style="fill:#ffffff;fill-opacity:1;fill-rule:nonzero;stroke:none"
         id="path16" />
      <path
         d="M 3090.59,4208.5 V 4027.87"
         style="fill:none;stroke:#ffffff;stroke-width:213.974;stroke-linecap:round;stroke-linejoin:round;stroke-miterlimit:10;stroke-dasharray:none;stroke-opacity:1"
         id="path18" />
      <path
         d="m 4255.85,3935.04 -98.98,-151.1"
         style="fill:#ffffff;fill-opacity:1;fill-rule:nonzero;stroke:none"
         id="path20" />
      <path
         d="m 4255.85,3935.04 -98.98,-151.1"
         style="fill:none;stroke:#ffffff;stroke-width:213.974;stroke-linecap:round;stroke-linejoin:round;stroke-miterlimit:10;stroke-dasharray:none;stroke-opacity:1"
         id="path22" />
      <path
         d="M 5923.59,2398.9 H 5742.96"
         style="fill:#ffffff;fill-opacity:1;fill-rule:nonzero;stroke:none"
         id="path24" />
      <path
         d="M 5923.59,2398.9 H 5742.96"
         style="fill:none;stroke:#ffffff;stroke-width:213.974;stroke-linecap:round;stroke-linejoin:round;stroke-miterlimit:10;stroke-dasharray:none;stroke-opacity:1"
         id="path26" />
      <path
         d="M 3090.59,607.23 V 787.859"
         style="fill:#ffffff;fill-opacity:1;fill-rule:nonzero;stroke:none"
         id="path28" />
      <path
         d="M 3090.59,607.23 V 787.859"
         style="fill:none;stroke:#ffffff;stroke-width:213.974;stroke-linecap:round;stroke-linejoin:round;stroke-miterlimit:10;stroke-dasharray:none;stroke-opacity:1"
         id="path30" />
      <path
         d="m 4255.85,880.699 -98.98,151.091"
         style="fill:#ffffff;fill-opacity:1;fill-rule:nonzero;stroke:none"
         id="path32" />
      <path
         d="m 4255.85,880.699 -98.98,151.091"
         style="fill:none;stroke:#ffffff;stroke-width:213.974;stroke-linecap:round;stroke-linejoin:round;stroke-miterlimit:10;stroke-dasharray:none;stroke-opacity:1"
         id="path34" />
      <path
         d="m 1955.53,3965.23 98.98,-151.1"
         style="fill:#ffffff;fill-opacity:1;fill-rule:nonzero;stroke:none"
         id="path36" />
      <path
         d="m 1955.53,3965.23 98.98,-151.1"
         style="fill:none;stroke:#ffffff;stroke-width:213.974;stroke-linecap:round;stroke-linejoin:round;stroke-miterlimit:10;stroke-dasharray:none;stroke-opacity:1"
         id="path38" />
      <path
         d="m 927.18,3311.99 135.19,-119.78"
         style="fill:#ffffff;fill-opacity:1;fill-rule:nonzero;stroke:none"
         id="path40" />
      <path
         d="m 927.18,3311.99 135.19,-119.78"
         style="fill:none;stroke:#ffffff;stroke-width:213.974;stroke-linecap:round;stroke-linejoin:round;stroke-miterlimit:10;stroke-dasharray:none;stroke-opacity:1"
         id="path42" />
      <path
         d="M 227.402,2398.9 H 408.031"
         style="fill:#ffffff;fill-opacity:1;fill-rule:nonzero;stroke:none"
         id="path44" />
      <path
         d="M 227.402,2398.9 H 408.031"
         style="fill:none;stroke:#ffffff;stroke-width:213.974;stroke-linecap:round;stroke-linejoin:round;stroke-miterlimit:10;stroke-dasharray:none;stroke-opacity:1"
         id="path46" />
      <path
         d="m 1895.14,880.699 98.98,151.091"
         style="fill:#ffffff;fill-opacity:1;fill-rule:nonzero;stroke:none"
         id="path48" />
      <path
         d="m 1895.14,880.699 98.98,151.091"
         style="fill:none;stroke:#ffffff;stroke-width:213.974;stroke-linecap:round;stroke-linejoin:round;stroke-miterlimit:10;stroke-dasharray:none;stroke-opacity:1"
         id="path50" />
      <path
         d="M 906.402,1516 1041.6,1635.78"
         style="fill:#ffffff;fill-opacity:1;fill-rule:nonzero;stroke:none"
         id="path52" />
      <path
         d="M 906.402,1516 1041.6,1635.78"
         style="fill:none;stroke:#ffffff;stroke-width:213.974;stroke-linecap:round;stroke-linejoin:round;stroke-miterlimit:10;stroke-dasharray:none;stroke-opacity:1"
         id="path54" />
      <path
         d="M 5223.81,3311.99 5088.62,3192.21"
         style="fill:#ffffff;fill-opacity:1;fill-rule:nonzero;stroke:none"
         id="path56" />
      <path
         d="M 5223.81,3311.99 5088.62,3192.21"
         style="fill:none;stroke:#ffffff;stroke-width:213.974;stroke-linecap:round;stroke-linejoin:round;stroke-miterlimit:10;stroke-dasharray:none;stroke-opacity:1"
         id="path58" />
      <path
         d="M 5184.2,1455.61 5049,1575.39"
         style="fill:#ffffff;fill-opacity:1;fill-rule:nonzero;stroke:none"
         id="path60" />
      <path
         d="M 5184.2,1455.61 5049,1575.39"
         style="fill:none;stroke:#ffffff;stroke-width:213.974;stroke-linecap:round;stroke-linejoin:round;stroke-miterlimit:10;stroke-dasharray:none;stroke-opacity:1"
         id="path62" />
      <path
         d="m 3672.34,2817.23 c 0,-329.62 -267.22,-596.84 -596.84,-596.84 -329.63,0 -596.85,267.22 -596.85,596.84 0,329.63 267.22,596.84 596.85,596.84 329.62,0 596.84,-267.21 596.84,-596.84"
         style="fill:#ffffff;fill-opacity:1;fill-rule:nonzero;stroke:none"
         id="path64" />
      <path
         d="M 2266,2034.88 398.027,52.3711 C 334.906,-14.6211 229.43,-17.7578 162.438,45.3594 95.4453,108.48 92.3086,213.961 155.43,280.949 c 0.133,2.301 1986.72,1871.211 1989.51,1874.971 82.22,72.53 194.01,-37.21 121.06,-121.04 v 0"
         style="fill:#ffffff;fill-opacity:1;fill-rule:nonzero;stroke:none"
         id="path66" />
      <path
         d="m 2421.24,2129.61 c -19.84,-46.45 -52.6,-82.58 -87.31,-117.82 -21.51,-22.7 -42.23,-40.59 -76.79,-46.28 -104.35,-18.19 -199.39,77.67 -181.56,181.56 5.69,34.55 23.58,55.28 46.28,76.79 35.25,34.71 71.37,67.46 117.82,87.31 114.38,48.59 229.74,-68.78 181.56,-181.56 v 0"
         style="fill:#ffffff;fill-opacity:1;fill-rule:nonzero;stroke:none"
         id="path68" />
      <path
         d="M 4006.03,2155.93 5988.55,287.949 c 66.99,-63.117 70.13,-168.59 7.01,-235.5779 -63.12,-66.9922 -168.6,-70.1289 -235.59,-7.0117 C 5757.67,45.4922 3888.76,2032.08 3885,2034.87 c -72.53,82.21 37.21,194 121.03,121.06 v 0"
         style="fill:#ffffff;fill-opacity:1;fill-rule:nonzero;stroke:none"
         id="path70" />
      <path
         d="m 3911.31,2311.17 c 46.45,-19.84 82.58,-52.6 117.82,-87.31 22.7,-21.52 40.59,-42.24 46.28,-76.79 18.19,-104.35 -77.67,-199.39 -181.56,-181.56 -34.55,5.69 -55.28,23.58 -76.79,46.28 -34.71,35.25 -67.46,71.37 -87.31,117.82 -48.59,114.38 68.78,229.74 181.56,181.56 v 0"
         style="fill:#ffffff;fill-opacity:1;fill-rule:nonzero;stroke:none"
         id="path72" />
      <path
         d="M 2256.94,2915.36 1278.36,4230.32 1062.39,4081.64 515.129,4639.18 0,4266.09 972.258,3586.84 1219.63,3771.41 2256.94,2915.36"
         style="fill:#ffffff;fill-opacity:1;fill-rule:nonzero;stroke:none"
         id="path74" />
      <path
         d="m 3894.04,2915.36 978.58,1314.96 215.97,-148.68 547.26,557.54 515.13,-373.09 -972.26,-679.25 -247.37,184.57 -1037.31,-856.05"
         style="fill:#ffffff;fill-opacity:1;fill-rule:nonzero;stroke:none"
         id="path76" />
    </g>
  </g>
</svg>
