<svg width="566" height="106" viewBox="0 0 566 106" fill="none" xmlns="http://www.w3.org/2000/svg">
<path d="M565.95 105.474H0.913086V0.229882H565.95V105.474Z" fill="#AE90CE"/>
<path d="M35.4384 35.3114V72.8974H40.0992C42.7286 72.8974 44.3088 71.5447 44.3088 67.7854V40.4234C44.3088 36.665 42.7286 35.3114 40.0992 35.3114H35.4384ZM27.1689 27.7946H40.2489C48.5164 27.7946 52.5782 32.3805 52.5782 40.7997V67.41C52.5782 75.8291 48.5164 80.415 40.2489 80.415H27.1689V27.7946Z" fill="#171717"/>
<path d="M67.9872 35.3114V51.4739H71.2195C74.3002 51.4739 76.1789 50.1213 76.1789 45.9117V40.7248C76.1789 36.9654 74.903 35.3114 71.9712 35.3114H67.9872ZM77.0064 80.415C76.5571 79.0612 76.2547 78.2348 76.2547 73.9496V65.6809C76.2547 60.7946 74.6026 58.9898 70.8432 58.9898H67.9872V80.415H59.7178V27.7946H72.1968C80.7648 27.7946 84.4483 31.7786 84.4483 39.8973V44.032C84.4483 49.4445 82.7193 52.9782 79.0358 54.7072C83.1705 56.4362 84.5232 60.4182 84.5232 65.9067V74.0254C84.5232 76.5806 84.599 78.4605 85.4256 80.415H77.0064Z" fill="#171717"/>
<path d="M99.7099 27.7956V68.388C99.7099 72.1467 101.363 73.4993 103.994 73.4993C106.628 73.4993 108.28 72.1467 108.28 68.388V27.7956H116.098V67.8612C116.098 76.2796 111.887 81.0908 103.771 81.0908C95.6501 81.0908 91.4424 76.2796 91.4424 67.8612V27.7956H99.7099Z" fill="#171717"/>
<path d="M141.13 65.1548L146.768 27.7946H158.27V80.415H150.452V42.6794L144.738 80.415H136.92L130.757 43.2054V80.415H123.54V27.7946H135.041L141.13 65.1548Z" fill="#171717"/>
<path d="M183.678 65.1548L189.316 27.7946H200.818V80.415H193V42.6794L187.287 80.415H179.468L173.306 43.2054V80.415H166.089V27.7946H177.589L183.678 65.1548Z" fill="#171717"/>
<path d="M216.981 49.9706H228.332V57.4883H216.981V72.8974H231.264V80.415H208.712V27.7955H231.264V35.3114H216.981V49.9706Z" fill="#171717"/>
<path d="M246.525 35.3114V51.4739H249.758C252.838 51.4739 254.718 50.1213 254.718 45.9117V40.7248C254.718 36.9654 253.441 35.3114 250.509 35.3114H246.525ZM255.544 80.415C255.095 79.0612 254.793 78.2348 254.793 73.9496V65.6809C254.793 60.7946 253.141 58.9898 249.382 58.9898H246.525V80.415H238.256V27.7946H250.735C259.304 27.7946 262.986 31.7786 262.986 39.8973V44.032C262.986 49.4445 261.257 52.9782 257.574 54.7072C261.709 56.4362 263.062 60.4182 263.062 65.9067V74.0254C263.062 76.5806 263.137 78.4605 263.965 80.415H255.544Z" fill="#171717"/>
<path d="M310.617 27.5213H336.175V35.0381H327.53V80.1416H319.263V35.0381H310.617V27.5213Z" fill="#171717"/>
<path d="M347.375 68.0385C347.375 71.7979 349.028 73.2255 351.657 73.2255C354.291 73.2255 355.944 71.7979 355.944 68.0385V39.6244C355.944 35.866 354.291 34.4375 351.657 34.4375C349.028 34.4375 347.375 35.866 347.375 39.6244V68.0385ZM339.105 40.1505C339.105 31.7313 343.541 26.9198 351.657 26.9198C359.778 26.9198 364.213 31.7313 364.213 40.1505V67.5124C364.213 75.9326 359.778 80.7412 351.657 80.7412C343.541 80.7412 339.105 75.9326 339.105 67.5124V40.1505Z" fill="#171717"/>
<path d="M399.547 52.1019L396.539 80.1406H385.188L379.326 27.5211H387.37L391.803 69.0162L395.787 27.5211H403.758L407.891 69.3166L412.175 27.5211H419.393L413.529 80.1406H402.553L399.547 52.1019Z" fill="#171717"/>
<path d="M430.291 63.4522H438.261L434.275 36.8429L430.291 63.4522ZM449.16 80.1416H440.816L439.387 70.5945H429.239L427.812 80.1416H420.22L428.639 27.5204H440.741L449.16 80.1416Z" fill="#171717"/>
<path d="M450.589 27.5213H476.147V35.0381H467.501V80.1416H459.234V35.0381H450.589V27.5213Z" fill="#171717"/>
<path d="M503.735 60.5217V67.5124C503.735 75.9326 499.525 80.7412 491.406 80.7412C483.289 80.7412 479.077 75.9326 479.077 67.5124V40.1505C479.077 31.7313 483.289 26.9198 491.406 26.9198C499.525 26.9198 503.735 31.7313 503.735 40.1505V45.2625H495.917V39.6244C495.917 35.866 494.262 34.4375 491.631 34.4375C489.002 34.4375 487.347 35.866 487.347 39.6244V68.0385C487.347 71.7979 489.002 73.1505 491.631 73.1505C494.262 73.1505 495.917 71.7979 495.917 68.0385V60.5217H503.735Z" fill="#171717"/>
<path d="M517.042 80.1406H508.772V27.5201H517.042V50.0725H526.436V27.5201H534.857V80.1406H526.436V57.5883H517.042V80.1406Z" fill="#171717"/>
<path d="M546.819 26.6779H550.329L551.699 34.2302H551.766L553.102 26.6779H556.61V38.5752H554.405V29.5176H554.339L552.534 38.5752H550.728L548.924 29.5176H548.857V38.5752H546.819V26.6779ZM540.637 28.8158H538.197V26.6779H545.415V28.8158H542.975V38.5752H540.637V28.8158Z" fill="#171717"/>
<path d="M281.769 27.1984C289.721 27.1984 293.808 31.9552 293.808 40.2803V41.9152H286.078V39.76C286.078 36.0438 284.594 34.6307 281.993 34.6307C279.391 34.6307 277.904 36.0438 277.904 39.76C277.904 50.4611 293.883 52.4685 293.883 67.3339C293.883 75.6581 289.721 80.415 281.695 80.415C273.667 80.415 269.505 75.6581 269.505 67.3339V64.1373H277.235V67.8544C277.235 71.5707 278.871 72.9078 281.47 72.9078C284.074 72.9078 285.709 71.5707 285.709 67.8544C285.709 57.1504 269.729 55.144 269.729 40.2803C269.729 31.9552 273.816 27.1984 281.769 27.1984Z" fill="#171717"/>
</svg>
